<?xml version="1.0" encoding="UTF-8" standalone="no"?>
<!-- Generator: Adobe Illustrator 15.0.0, SVG Export Plug-In . SVG Version: 6.00 Build 0)  -->

<svg
   xmlns:dc="http://purl.org/dc/elements/1.1/"
   xmlns:cc="http://creativecommons.org/ns#"
   xmlns:rdf="http://www.w3.org/1999/02/22-rdf-syntax-ns#"
   xmlns:svg="http://www.w3.org/2000/svg"
   xmlns="http://www.w3.org/2000/svg"
   xmlns:sodipodi="http://sodipodi.sourceforge.net/DTD/sodipodi-0.dtd"
   xmlns:inkscape="http://www.inkscape.org/namespaces/inkscape"
   version="1.1"
   x="0px"
   y="0px"
   width="1126.313"
   height="464.32001"
   viewBox="0 0 1126.313 464.32003"
   enable-background="new 0 0 1287.75 515.91"
   xml:space="preserve"
   id="svg26"
   sodipodi:docname="sicony-logo.svg"
   inkscape:version="0.92.2 2405546, 2018-03-11"><metadata
   id="metadata32"><rdf:RDF><cc:Work
       rdf:about=""><dc:format>image/svg+xml</dc:format><dc:type
         rdf:resource="http://purl.org/dc/dcmitype/StillImage" /><dc:title></dc:title></cc:Work></rdf:RDF></metadata><defs
   id="defs30" /><sodipodi:namedview
   pagecolor="#ffffff"
   bordercolor="#666666"
   borderopacity="1"
   objecttolerance="10"
   gridtolerance="10"
   guidetolerance="10"
   inkscape:pageopacity="0"
   inkscape:pageshadow="2"
   inkscape:window-width="1920"
   inkscape:window-height="1007"
   id="namedview28"
   showgrid="false"
   fit-margin-top="0"
   fit-margin-left="0"
   fit-margin-right="0"
   fit-margin-bottom="0"
   inkscape:zoom="0.23762376"
   inkscape:cx="191.786"
   inkscape:cy="232.16001"
   inkscape:window-x="0"
   inkscape:window-y="24"
   inkscape:window-maximized="1"
   inkscape:current-layer="svg26" />
<g
   id="Ebene_1"
   transform="translate(-10.214,-25.795)">
	<g
   id="g6">
		<polygon
   points="13.743,138.872 74.935,177.323 260.131,64.251 198.904,25.795 "
   id="polygon2"
   style="fill:#3b7cff" />
		<polygon
   points="200.75,256.371 385.906,143.247 312.961,97.43 127.775,210.523 "
   id="polygon4"
   style="fill:#3b7cff" />
	</g>
	<polygon
   points="74.976,271.859 74.919,197.764 10.214,157.419 10.214,377.883 190.21,490.115 190.21,269.651 127.238,230.385 127.289,305.388 "
   id="polygon8"
   style="fill:#3b7cff" />
	<path
   d="M 210.645,490.115 390.646,377.884 V 157.419 L 210.645,269.651 Z m 57.057,-115.761 v -37.125 c 7.541,4.545 15.057,7.928 22.551,10.15 7.491,2.226 14.574,3.336 21.245,3.336 8.121,0 14.524,-1.11 19.215,-3.336 4.688,-2.223 7.033,-5.605 7.033,-10.15 0,-2.9 -1.064,-5.316 -3.189,-7.252 -2.128,-1.932 -4.858,-3.625 -8.194,-5.075 -3.335,-1.45 -6.986,-2.755 -10.949,-3.915 -3.965,-1.16 -7.784,-2.466 -11.457,-3.916 -5.898,-2.223 -11.094,-4.615 -15.59,-7.179 -4.495,-2.56 -8.266,-5.533 -11.312,-8.919 -3.045,-3.383 -5.365,-7.298 -6.961,-11.746 -1.595,-4.445 -2.393,-9.717 -2.393,-15.807 0,-8.314 1.813,-15.468 5.438,-21.463 3.625,-5.993 8.458,-10.899 14.502,-14.719 6.041,-3.818 12.954,-6.621 20.737,-8.411 7.781,-1.788 15.88,-2.683 24.291,-2.683 6.573,0 13.244,0.507 20.013,1.523 6.766,1.015 13.437,2.49 20.013,4.423 v 35.385 c -5.801,-3.383 -12.014,-5.921 -18.635,-7.613 -6.624,-1.69 -13.124,-2.538 -19.505,-2.538 -2.998,0 -5.826,0.268 -8.484,0.798 -2.66,0.532 -5.003,1.305 -7.033,2.32 -2.03,1.015 -3.625,2.32 -4.786,3.915 -1.16,1.596 -1.74,3.408 -1.74,5.438 0,2.708 0.87,5.028 2.61,6.961 1.74,1.935 4.011,3.603 6.816,5.003 2.803,1.402 5.921,2.66 9.354,3.771 3.431,1.112 6.839,2.248 10.225,3.408 6.09,2.128 11.602,4.448 16.531,6.961 4.932,2.515 9.159,5.464 12.689,8.847 3.528,3.385 6.236,7.348 8.121,11.891 1.886,4.546 2.828,9.959 2.828,16.242 0,8.799 -1.91,16.315 -5.729,22.551 -3.82,6.236 -8.896,11.312 -15.227,15.228 -6.334,3.915 -13.632,6.769 -21.898,8.556 -8.266,1.788 -16.847,2.684 -25.741,2.684 -16.338,-0.003 -31.467,-2.519 -45.389,-7.544 z"
   id="path10"
   inkscape:connector-curvature="0"
   style="fill:#3b7cff" />
</g>
<g
   id="Ebene_2"
   transform="translate(-10.214,-25.795)">
	<g
   id="g23">
		<path
   d="m 430.136,206.276 c -7.735,0 -14.066,-2.295 -18.997,-6.889 -4.931,-4.59 -7.396,-10.224 -7.396,-16.895 0,-6.863 2.465,-12.472 7.396,-16.822 4.931,-4.35 11.262,-6.526 18.997,-6.526 7.832,0 14.188,2.175 19.07,6.526 4.881,4.351 7.324,9.959 7.324,16.822 0,6.961 -2.443,12.667 -7.324,17.112 -4.882,4.449 -11.237,6.672 -19.07,6.672 z m 22.624,171.993 h -45.826 v -148.5 h 45.826 z"
   id="path13"
   inkscape:connector-curvature="0"
   style="fill:#3b7cff" />
		<path
   d="m 603.871,372.903 c -10.347,5.994 -25.284,8.992 -44.812,8.992 -22.818,0 -41.283,-6.912 -55.397,-20.738 -14.117,-13.824 -21.173,-31.662 -21.173,-53.512 0,-25.234 7.563,-45.124 22.695,-59.676 15.13,-14.55 35.36,-21.826 60.69,-21.826 17.498,0 30.164,2.32 37.996,6.961 v 38.865 c -9.572,-7.152 -20.256,-10.73 -32.05,-10.73 -13.149,0 -23.565,3.843 -31.252,11.528 -7.686,7.687 -11.528,18.298 -11.528,31.832 0,13.149 3.673,23.471 11.021,30.962 7.346,7.493 17.449,11.238 30.309,11.238 11.406,0 22.573,-3.575 33.5,-10.73 v 36.834 z"
   id="path15"
   inkscape:connector-curvature="0"
   style="fill:#3b7cff" />
		<path
   d="m 704.658,381.895 c -24.75,0 -44.208,-6.937 -58.37,-20.811 -14.164,-13.872 -21.245,-32.702 -21.245,-56.485 0,-24.556 7.346,-43.771 22.043,-57.646 14.694,-13.872 34.563,-20.81 59.604,-20.81 24.652,0 43.988,6.938 58.008,20.81 14.017,13.875 21.027,32.22 21.027,55.035 0,24.653 -7.229,44.136 -21.681,58.443 -14.454,14.309 -34.249,21.464 -59.386,21.464 z m 1.16,-120.656 c -10.828,0 -19.239,3.723 -25.232,11.166 -5.996,7.445 -8.992,17.982 -8.992,31.614 0,28.521 11.505,42.78 34.516,42.78 21.945,0 32.919,-14.646 32.919,-43.94 -10e-4,-27.746 -11.072,-41.62 -33.211,-41.62 z"
   id="path17"
   inkscape:connector-curvature="0"
   style="fill:#3b7cff" />
		<path
   d="m 958.878,378.269 h -45.681 v -82.517 c 0,-23.008 -8.219,-34.514 -24.654,-34.514 -7.928,0 -14.454,3.045 -19.577,9.136 -5.126,6.091 -7.687,13.827 -7.687,23.203 v 84.691 h -45.826 v -148.5 h 45.826 v 23.493 h 0.58 c 10.925,-18.078 26.829,-27.119 47.712,-27.119 32.869,0 49.307,20.4 49.307,61.199 z"
   id="path19"
   inkscape:connector-curvature="0"
   style="fill:#3b7cff" />
		<path
   d="m 1136.527,229.769 -60.328,160.392 c -14.502,38.575 -36.353,57.862 -65.549,57.862 -11.119,0 -20.255,-1.257 -27.408,-3.77 v -36.545 c 6.09,3.575 12.711,5.365 19.867,5.365 11.794,0 20.013,-5.561 24.653,-16.678 l 7.831,-18.417 -60.328,-148.21 h 50.757 l 27.698,90.347 c 1.74,5.609 3.094,12.232 4.061,19.868 h 0.58 c 0.871,-5.606 2.466,-12.132 4.786,-19.577 l 27.989,-90.638 h 45.391 z"
   id="path21"
   inkscape:connector-curvature="0"
   style="fill:#3b7cff" />
	</g>
</g>
</svg>